<svg width="30" height="26" viewBox="0 0 30 26" fill="none" xmlns="http://www.w3.org/2000/svg">
<g id="Group">
<g id="Group_2">
<path id="Vector" d="M8.85059 0.00210571V9.52585C10.9416 9.55597 12.9854 10.1089 14.7924 11.135V1.67581C12.9961 0.61092 10.9481 0.0365251 8.85059 0.00425582V0.00210571Z" fill="currentColor"/>
<path id="Vector_2" d="M15.2095 1.6737V11.1329C17.0166 10.1089 19.0603 9.55387 21.1513 9.52375V0C19.0538 0.030118 17.0058 0.606662 15.2095 1.67155V1.6737Z" fill="currentColor"/>
</g>
<g id="Group_3">
<g id="Group_4">
<path id="Vector_3" d="M30.0003 14.8352L21.7738 10.0379C20.6938 11.8299 19.1879 13.3143 17.3916 14.3598L25.5643 19.1249C27.3886 18.1095 28.9182 16.6316 30.0003 14.8352Z" fill="currentColor"/>
<path id="Vector_4" d="M25.355 19.4863L17.1823 14.7212C17.1565 16.7994 16.6058 18.8409 15.5796 20.6631L23.8061 25.4604C24.8366 23.6319 25.3701 21.5731 25.355 19.4863Z" fill="currentColor"/>
</g>
<g id="Group_5">
<path id="Vector_5" d="M0 14.8352L8.22652 10.0379C9.30647 11.8299 10.8124 13.3143 12.6087 14.3598L4.43596 19.1249C2.61166 18.1095 1.0821 16.6316 0 14.8352Z" fill="currentColor"/>
<path id="Vector_6" d="M4.64679 19.4863L12.8195 14.7212C12.8453 16.7994 13.3961 18.8409 14.4222 20.6631L6.19572 25.4604C5.16525 23.6319 4.63174 21.5731 4.64679 19.4863Z" fill="currentColor"/>
</g>
</g>
</g>
</svg>
